HIERARCHY
ROOT ui
{
	 OFFSET 0 0 0
	 CHANNELS 3 XPosition YPosition Z Position
	 EndSite
	 {
	 OFFSET 0 -1 0
	 }
}
ROOT li
{
	 OFFSET 0 0 0
	 CHANNELS 3 XPosition YPosition Z Position
	 EndSite
	 {
	 OFFSET 0 -1 0
	 }
}
ROOT ul
{
	 OFFSET 0 0 0
	 CHANNELS 3 XPosition YPosition Z Position
	 EndSite
	 {
	 OFFSET 0 -1 0
	 }
}
ROOT ll
{
	 OFFSET 0 0 0
	 CHANNELS 3 XPosition YPosition Z Position
	 EndSite
	 {
	 OFFSET 0 -1 0
	 }
}
ROOT tt
{
	 OFFSET 0 0 0
	 CHANNELS 3 XPosition YPosition Z Position
	 EndSite
	 {
	 OFFSET 0 -1 0
	 }
}
ROOT tb
{
	 OFFSET 0 0 0
	 CHANNELS 3 XPosition YPosition Z Position
	 EndSite
	 {
	 OFFSET 0 -1 0
	 }
}
ROOT td
{
	 OFFSET 0 0 0
	 CHANNELS 3 XPosition YPosition Z Position
	 EndSite
	 {
	 OFFSET 0 -1 0
	 }
}
ROOT v
{
	 OFFSET 0 0 0
	 CHANNELS 3 XPosition YPosition Z Position
	 EndSite
	 {
	 OFFSET 0 -1 0
	 }
}
ROOT bn
{
	 OFFSET 0 0 0
	 CHANNELS 3 XPosition YPosition Z Position
	 EndSite
	 {
	 OFFSET 0 -1 0
	 }
}
MOTION
Frames: 10
Frame Time: 0.002
-0.008531229019165039	-0.0010831209421157837	0		0.6235718994140625	-2.520159423828125	0		-0.9954247436523438	0.3957319641113281	0		-0.4234947204589844	-2.90389306640625	0		1.822445556640625	-1.1495953369140626	0		3.488216552734375	-0.5527467651367187	0		4.77746484375	-0.3999351806640625	0		5.99055908203125	0.46137677001953126	0		-0.3031184387207031	5.8704296875	0		
-0.008420305252075195	-0.0010306969881057739	0		0.6235890502929687	-2.520130615234375	0		-0.9952990112304687	0.39582113647460937	0		-0.4835296936035156	-2.908348388671875	0		1.8196011962890626	-1.1385875244140624	0		3.48641015625	-0.5398090209960937	0		4.77060888671875	-0.3940055236816406	0		5.98783056640625	0.4749712829589844	0		-0.33584347534179687	5.86375537109375	0		
-0.008296200752258301	-9.81863021850586E-4	0		0.6016735229492187	-2.512930419921875	0		-0.9951597900390625	0.3959076538085938	0		-0.41558267211914063	-2.916823974609375	0		1.8127379150390626	-1.1315528564453126	0		3.506369384765625	-0.558052734375	0		4.7807177734375	-0.39421905517578126	0		5.9992744140625	0.45713473510742186	0		-0.3354953308105469	5.86381640625	0		
0.02086739730834961	0.002830806016921997	0		0.6017075805664063	-2.512908935546875	0		-0.9950117797851562	0.3959917297363281	0		-0.45255523681640625	-2.9154658203125	0		1.80688232421875	-1.1245308837890624	0		3.495608642578125	-0.5420573120117187	0		4.7838828125	-0.388385498046875	0		5.9944443359375	0.4776578369140625	0		-0.3010860900878906	5.86960205078125	0		
-0.008027543067932129	-8.943139910697937E-4	0		0.6257022705078125	-2.51808447265625	0		-0.9718927001953125	0.3918880615234375	0		-0.4226090393066406	-2.9246474609375	0		1.8210216064453124	-1.1186744384765626	0		3.51367431640625	-0.5483001098632813	0		4.780955078125	-0.3945105285644531	0		5.9994658203125	0.4564539489746094	0		-0.3017071228027344	5.87066357421875	0		
-0.007892830848693848	-8.553789854049683E-4	0		0.6237188110351563	-2.520054931640625	0		-1.0157001342773437	0.3973223571777344	0		-0.4286412353515625	-2.93054296875	0		1.823143310546875	-1.1147259521484374	0		3.47886083984375	-0.5391206665039062	0		4.77107421875	-0.39458465576171875	0		5.984583984375	0.4563895568847656	0		-0.30133450317382815	5.87071435546875	0		
-0.007764688014984131	-8.196120262145997E-4	0		0.623744140625	-2.520044921875	0		-1.0155557250976563	0.3973992309570312	0		-0.43166513061523437	-2.93446533203125	0		1.8062591552734375	-1.1106265869140626	0		3.49083642578125	-0.5553243408203125	0		4.77612109375	-0.40278436279296875	0		5.99322265625	0.45239483642578127	0		-0.31894171142578126	5.87390869140625	0		
-0.007646657943725586	-7.868170142173767E-4	0		0.6038336791992187	-2.51087451171875	0		-1.0154214477539063	0.3974731750488281	0		-0.45167434692382813	-2.93525146484375	0		1.814421630859375	-1.099733642578125	0		3.499168701171875	-0.5265007934570313	0		4.77232080078125	-0.39091452026367185	0		5.99200830078125	0.4901100158691406	0		-0.26945455932617185	5.889552734375	0		
-0.00450759220123291	0.003218540906906128	0		0.6298208618164063	-2.5130830078125	0		-0.9872259521484374	0.4063136291503906	0		-0.428646728515625	-2.930392822265625	0		1.802598876953125	-1.08567919921875	0		3.49216357421875	-0.5375548706054688	0		4.78442724609375	-0.38917691040039065	0		5.98483544921875	0.45528005981445313	0		-0.30513290405273436	5.8868896484375	0		
-0.007445785045623779	-7.288299798965454E-4	0		0.6018158569335937	-2.512849365234375	0		-1.0301466064453124	0.4027361145019531	0		-0.4357351989746094	-2.9382900390625	0		1.8136744384765624	-1.0828148193359375	0		3.4952861328125	-0.5316920776367188	0		4.77145751953125	-0.39523318481445313	0		5.981978515625	0.434206787109375	0		-0.3188931579589844	5.87604541015625	0		
